<svg width="88" height="88" viewBox="0 0 88 88" fill="none" xmlns="http://www.w3.org/2000/svg">
<circle cx="43.7892" cy="43.7892" r="42.2892" stroke="#87C2FF" stroke-width="3"/>
<path d="M48.0804 15.6733C48.456 15.2977 49.065 15.2977 49.4406 15.6733L48.7605 16.3534C49.4406 15.6733 49.4406 15.6733 49.4406 15.6733L49.442 15.6747L49.4436 15.6763L49.4478 15.6805L49.4595 15.6925C49.4688 15.7021 49.4811 15.7149 49.4961 15.7308C49.5262 15.7627 49.5675 15.8074 49.6182 15.8646C49.7195 15.979 49.859 16.1439 50.0238 16.3581C50.3532 16.7863 50.785 17.4134 51.2147 18.2299C52.075 19.8644 52.9284 22.2615 52.9284 25.3305C52.9284 28.3996 52.075 30.7967 51.2147 32.4312C50.785 33.2477 50.3532 33.8748 50.0238 34.303C49.859 34.5172 49.7195 34.6821 49.6182 34.7965C49.5675 34.8537 49.5262 34.8984 49.4961 34.9303C49.4811 34.9462 49.4688 34.959 49.4595 34.9686L49.4478 34.9806L49.4436 34.9848L49.442 34.9864L49.4413 34.9871C49.4413 34.9871 49.4406 34.9878 48.797 34.3441L49.4413 34.9871C49.0656 35.3628 48.456 35.3634 48.0804 34.9878C47.7051 34.6125 47.7048 34.0044 48.0793 33.6287C48.0793 33.6287 48.0804 33.6275 48.7605 34.3077L48.0804 33.6275L48.0793 33.6287C48.0821 33.6258 48.0885 33.6191 48.0969 33.6102C48.1137 33.5923 48.1414 33.5625 48.1784 33.5207C48.2523 33.4373 48.3633 33.3066 48.4991 33.1301C48.7709 32.7767 49.1406 32.2417 49.5124 31.5353C50.2552 30.124 51.0048 28.0325 51.0048 25.3305C51.0048 22.6286 50.2552 20.5371 49.5124 19.1258C49.1406 18.4194 48.7709 17.8844 48.4991 17.531C48.3633 17.3545 48.2523 17.2238 48.1784 17.1403C48.1414 17.0986 48.1137 17.0687 48.0969 17.0509C48.0885 17.0419 48.0827 17.036 48.0799 17.0331L48.0779 17.0311L48.0804 15.6733Z" fill="#87C2FF"/>
<path fill-rule="evenodd" clip-rule="evenodd" d="M35.6576 31.6559C35.7744 31.0837 35.9279 30.4894 36.1333 29.8773L42.7479 27.6074L36.7027 27.0749L42.8021 23.5451L35.5816 24.6315C34.2684 22.4747 31.895 21.0344 29.1853 21.0344C25.6164 21.0344 22.631 23.5327 21.8826 26.8758L21.8734 26.8463C21.8758 26.4159 21.8257 26.2522 21.8 26.2779C21.7743 26.3036 21.773 26.5188 21.8734 26.8463C21.8732 26.8706 21.8729 26.8959 21.8724 26.922C21.7607 27.4362 21.7019 27.9701 21.7019 28.5178C21.7019 28.636 21.7075 28.7561 21.7184 28.8779C21.8161 36.2637 24.7949 54.6025 38.4381 55.1902L38.036 58.4607L31.7754 58.4371L26.0011 58.7456L21.8059 57.9462L21.7019 60.0584L42.8237 61.0983L53.8347 60.7429C58.4445 64.0878 62.0993 68.1566 64.2638 70.5662C65.4042 71.8358 66.1309 72.6448 66.3657 72.6448C66.3657 70.6142 64.8546 66.4587 62.3608 61.5317L63.8817 61.7115L64.036 58.5771L60.5926 58.2085C54.4851 47.2494 44.5243 34.175 35.6576 31.6559ZM39.6292 58.4667L41.8641 58.4751L42.2337 55.4695C41.8275 55.4012 41.4185 55.3454 41.0069 55.3029L39.6292 58.4667ZM44.3589 55.9441L43.2672 58.451L49.2867 57.9111C47.7127 57.0961 46.065 56.4178 44.3589 55.9441Z" fill="#87C2FF"/>
<path d="M46.3115 20.6507C45.9534 20.2926 45.3727 20.2926 45.0146 20.6507L45.0104 21.9433L45.0136 21.9466C45.0187 21.9521 45.0291 21.9633 45.044 21.98C45.0737 22.0136 45.1212 22.0694 45.1808 22.1468C45.3001 22.302 45.4662 22.5418 45.6342 22.8611C45.9696 23.4982 46.3114 24.4482 46.3114 25.682C46.3114 26.9159 45.9696 27.8659 45.6342 28.503C45.4662 28.8223 45.3001 29.0621 45.1808 29.2172C45.1212 29.2947 45.0737 29.3505 45.044 29.384C45.0291 29.4008 45.0187 29.412 45.0136 29.4174L45.0104 29.4208C44.6565 29.7792 44.6579 30.3567 45.0146 30.7134C45.3727 31.0715 45.9534 31.0715 46.3115 30.7134L45.663 30.065C46.3115 30.7134 46.3115 30.7134 46.3115 30.7134L46.3127 30.7122L46.314 30.7108L46.3172 30.7076L46.3252 30.6995C46.3312 30.6932 46.3388 30.6854 46.3477 30.676C46.3654 30.6571 46.3887 30.6319 46.4167 30.6004C46.4725 30.5373 46.5473 30.4488 46.6345 30.3355C46.8086 30.1091 47.0339 29.7814 47.2572 29.3572C47.7045 28.5072 48.1454 27.2658 48.1454 25.682C48.1454 24.0983 47.7045 22.8568 47.2572 22.0069C47.0339 21.5826 46.8086 21.255 46.6345 21.0286C46.5473 20.9152 46.4725 20.8268 46.4167 20.7637C46.3887 20.7322 46.3654 20.7069 46.3477 20.6881C46.3433 20.6835 46.3393 20.6793 46.3357 20.6755C46.3318 20.6714 46.3283 20.6678 46.3252 20.6646L46.3172 20.6564L46.314 20.6532L46.3127 20.6519C46.3127 20.6519 46.3115 20.6507 45.663 21.2991L46.3115 20.6507Z" fill="#87C2FF"/>
</svg>
