<svg width="161" height="50" viewBox="0 0 161 50" fill="none" xmlns="http://www.w3.org/2000/svg">
<path d="M33.2719 5.4846H35.9984V24.9217L35.7638 28H33.2719V5.4846ZM46.7137 19.9378V20.2457C46.7137 21.3988 46.5769 22.4689 46.3033 23.4559C46.0297 24.4331 45.629 25.2833 45.1013 26.0064C44.5736 26.7296 43.9286 27.2915 43.1664 27.6922C42.4041 28.0928 41.5295 28.2932 40.5425 28.2932C39.536 28.2932 38.6516 28.1222 37.8893 27.7801C37.1369 27.4283 36.5017 26.925 35.9837 26.2703C35.4658 25.6156 35.0505 24.824 34.7378 23.8956C34.4348 22.9673 34.2247 21.9216 34.1074 20.7587V19.4101C34.2247 18.2375 34.4348 17.1869 34.7378 16.2586C35.0505 15.3302 35.4658 14.5386 35.9837 13.8839C36.5017 13.2194 37.1369 12.7161 37.8893 12.3741C38.6418 12.0223 39.5164 11.8464 40.5132 11.8464C41.51 11.8464 42.3944 12.0418 43.1664 12.4327C43.9384 12.8138 44.5834 13.3611 45.1013 14.0745C45.629 14.7878 46.0297 15.6429 46.3033 16.6397C46.5769 17.6267 46.7137 18.7261 46.7137 19.9378ZM43.9872 20.2457V19.9378C43.9872 19.1463 43.914 18.4036 43.7674 17.7098C43.6208 17.0062 43.3862 16.3905 43.0638 15.8628C42.7413 15.3253 42.3162 14.9051 41.7885 14.6022C41.2608 14.2895 40.6109 14.1331 39.8389 14.1331C39.1548 14.1331 38.5587 14.2504 38.0506 14.4849C37.5522 14.7194 37.1271 15.037 36.7753 15.4377C36.4235 15.8286 36.1352 16.2781 35.9104 16.7863C35.6954 17.2847 35.5342 17.8026 35.4267 18.3401V21.8728C35.5831 22.5568 35.8371 23.2165 36.1889 23.8517C36.5505 24.4771 37.0294 24.9901 37.6255 25.3908C38.2314 25.7915 38.9789 25.9918 39.8682 25.9918C40.6011 25.9918 41.2266 25.8452 41.7445 25.552C42.2722 25.2491 42.6973 24.8338 43.0198 24.3061C43.352 23.7784 43.5964 23.1676 43.7527 22.4738C43.9091 21.7799 43.9872 21.0372 43.9872 20.2457ZM53.0902 12.1395V28H50.3637V12.1395H53.0902ZM50.1585 7.93257C50.1585 7.49281 50.2904 7.12146 50.5542 6.81852C50.8279 6.51558 51.2285 6.36411 51.7562 6.36411C52.2742 6.36411 52.6699 6.51558 52.9436 6.81852C53.227 7.12146 53.3687 7.49281 53.3687 7.93257C53.3687 8.35278 53.227 8.71435 52.9436 9.01729C52.6699 9.31046 52.2742 9.45705 51.7562 9.45705C51.2285 9.45705 50.8279 9.31046 50.5542 9.01729C50.2904 8.71435 50.1585 8.35278 50.1585 7.93257ZM60.1555 14.6315V28H57.4437V12.1395H60.0822L60.1555 14.6315ZM65.1101 12.0516L65.0954 14.5728C64.8707 14.524 64.6557 14.4947 64.4505 14.4849C64.255 14.4654 64.0302 14.4556 63.7762 14.4556C63.1507 14.4556 62.5986 14.5533 62.1198 14.7488C61.6409 14.9442 61.2354 15.2178 60.9031 15.5696C60.5709 15.9214 60.307 16.3416 60.1116 16.8303C59.9259 17.3091 59.8037 17.8368 59.7451 18.4134L58.9829 18.8531C58.9829 17.8954 59.0757 16.9964 59.2614 16.156C59.4568 15.3155 59.7549 14.5728 60.1555 13.9279C60.5562 13.2731 61.0644 12.765 61.68 12.4034C62.3054 12.032 63.0481 11.8464 63.9081 11.8464C64.1035 11.8464 64.3283 11.8708 64.5824 11.9197C64.8365 11.9588 65.0124 12.0027 65.1101 12.0516ZM77.3206 24.9217V5.4846H80.0471V28H77.5551L77.3206 24.9217ZM66.6492 20.2457V19.9378C66.6492 18.7261 66.7958 17.6267 67.089 16.6397C67.3919 15.6429 67.817 14.7878 68.3643 14.0745C68.9213 13.3611 69.5809 12.8138 70.3432 12.4327C71.1152 12.0418 71.9751 11.8464 72.9231 11.8464C73.9198 11.8464 74.7896 12.0223 75.5323 12.3741C76.2847 12.7161 76.9199 13.2194 77.4379 13.8839C77.9656 14.5386 78.3809 15.3302 78.6838 16.2586C78.9868 17.1869 79.1969 18.2375 79.3141 19.4101V20.7587C79.2066 21.9216 78.9965 22.9673 78.6838 23.8956C78.3809 24.824 77.9656 25.6156 77.4379 26.2703C76.9199 26.925 76.2847 27.4283 75.5323 27.7801C74.7798 28.1222 73.9003 28.2932 72.8937 28.2932C71.9654 28.2932 71.1152 28.0928 70.3432 27.6922C69.5809 27.2915 68.9213 26.7296 68.3643 26.0064C67.817 25.2833 67.3919 24.4331 67.089 23.4559C66.7958 22.4689 66.6492 21.3988 66.6492 20.2457ZM69.3757 19.9378V20.2457C69.3757 21.0372 69.4539 21.7799 69.6102 22.4738C69.7764 23.1676 70.0304 23.7784 70.3725 24.3061C70.7145 24.8338 71.1494 25.2491 71.6771 25.552C72.2048 25.8452 72.8351 25.9918 73.568 25.9918C74.4671 25.9918 75.2049 25.8012 75.7815 25.4201C76.3678 25.039 76.8369 24.5357 77.1887 23.9103C77.5405 23.2849 77.8141 22.6057 78.0095 21.8728V18.3401C77.8923 17.8026 77.7213 17.2847 77.4965 16.7863C77.2815 16.2781 76.9981 15.8286 76.6463 15.4377C76.3043 15.037 75.8792 14.7194 75.371 14.4849C74.8726 14.2504 74.2814 14.1331 73.5973 14.1331C72.8546 14.1331 72.2146 14.2895 71.6771 14.6022C71.1494 14.9051 70.7145 15.3253 70.3725 15.8628C70.0304 16.3905 69.7764 17.0062 69.6102 17.7098C69.4539 18.4036 69.3757 19.1463 69.3757 19.9378ZM96.5378 25.552L100.877 12.1395H103.647L97.945 28H96.1274L96.5378 25.552ZM92.9172 12.1395L97.388 25.6253L97.6958 28H95.8782L90.1321 12.1395H92.9172ZM105.304 20.2457V19.9085C105.304 18.7652 105.47 17.7049 105.802 16.7276C106.134 15.7406 106.613 14.8856 107.239 14.1624C107.864 13.4295 108.621 12.8627 109.511 12.462C110.4 12.0516 111.397 11.8464 112.501 11.8464C113.615 11.8464 114.617 12.0516 115.506 12.462C116.405 12.8627 117.167 13.4295 117.793 14.1624C118.428 14.8856 118.912 15.7406 119.244 16.7276C119.576 17.7049 119.742 18.7652 119.742 19.9085V20.2457C119.742 21.389 119.576 22.4493 119.244 23.4266C118.912 24.4038 118.428 25.2589 117.793 25.9918C117.167 26.7149 116.41 27.2817 115.521 27.6922C114.641 28.0928 113.644 28.2932 112.53 28.2932C111.416 28.2932 110.415 28.0928 109.525 27.6922C108.636 27.2817 107.874 26.7149 107.239 25.9918C106.613 25.2589 106.134 24.4038 105.802 23.4266C105.47 22.4493 105.304 21.389 105.304 20.2457ZM108.015 19.9085V20.2457C108.015 21.0372 108.108 21.7848 108.294 22.4884C108.48 23.1823 108.758 23.7979 109.129 24.3354C109.511 24.8729 109.985 25.298 110.551 25.6107C111.118 25.9136 111.778 26.0651 112.53 26.0651C113.273 26.0651 113.923 25.9136 114.48 25.6107C115.047 25.298 115.516 24.8729 115.887 24.3354C116.258 23.7979 116.537 23.1823 116.723 22.4884C116.918 21.7848 117.016 21.0372 117.016 20.2457V19.9085C117.016 19.1267 116.918 18.3889 116.723 17.6951C116.537 16.9915 116.253 16.371 115.872 15.8335C115.501 15.2862 115.032 14.8562 114.465 14.5435C113.908 14.2308 113.253 14.0745 112.501 14.0745C111.758 14.0745 111.103 14.2308 110.537 14.5435C109.98 14.8562 109.511 15.2862 109.129 15.8335C108.758 16.371 108.48 16.9915 108.294 17.6951C108.108 18.3889 108.015 19.1267 108.015 19.9085ZM126.089 12.1395V28H123.363V12.1395H126.089ZM123.158 7.93257C123.158 7.49281 123.29 7.12146 123.553 6.81852C123.827 6.51558 124.228 6.36411 124.755 6.36411C125.273 6.36411 125.669 6.51558 125.943 6.81852C126.226 7.12146 126.368 7.49281 126.368 7.93257C126.368 8.35278 126.226 8.71435 125.943 9.01729C125.669 9.31046 125.273 9.45705 124.755 9.45705C124.228 9.45705 123.827 9.31046 123.553 9.01729C123.29 8.71435 123.158 8.35278 123.158 7.93257ZM136.79 26.0651C137.435 26.0651 138.031 25.9332 138.578 25.6693C139.126 25.4055 139.575 25.0439 139.927 24.5846C140.279 24.1155 140.479 23.5829 140.528 22.9868H143.108C143.059 23.9249 142.741 24.7996 142.155 25.6107C141.578 26.412 140.821 27.0619 139.883 27.5602C138.945 28.0489 137.914 28.2932 136.79 28.2932C135.598 28.2932 134.557 28.0831 133.668 27.6629C132.788 27.2426 132.055 26.6661 131.469 25.9332C130.892 25.2002 130.458 24.3598 130.164 23.4119C129.881 22.4542 129.739 21.4428 129.739 20.3776V19.7619C129.739 18.6968 129.881 17.6902 130.164 16.7423C130.458 15.7846 130.892 14.9393 131.469 14.2064C132.055 13.4735 132.788 12.8969 133.668 12.4767C134.557 12.0565 135.598 11.8464 136.79 11.8464C138.031 11.8464 139.116 12.1005 140.044 12.6086C140.973 13.107 141.701 13.7911 142.228 14.6608C142.766 15.5208 143.059 16.498 143.108 17.5925H140.528C140.479 16.9377 140.293 16.3465 139.971 15.8188C139.658 15.2911 139.228 14.8709 138.681 14.5582C138.143 14.2357 137.513 14.0745 136.79 14.0745C135.959 14.0745 135.261 14.2406 134.694 14.5728C134.137 14.8953 133.692 15.3351 133.36 15.8921C133.037 16.4394 132.803 17.0501 132.656 17.7244C132.519 18.3889 132.451 19.0681 132.451 19.7619V20.3776C132.451 21.0714 132.519 21.7555 132.656 22.4298C132.793 23.1041 133.023 23.7148 133.345 24.2621C133.677 24.8093 134.122 25.2491 134.679 25.5814C135.246 25.9038 135.95 26.0651 136.79 26.0651ZM152.738 28.2932C151.634 28.2932 150.632 28.1075 149.733 27.7361C148.844 27.355 148.077 26.8224 147.432 26.1384C146.797 25.4543 146.308 24.6432 145.966 23.7051C145.624 22.7669 145.453 21.7408 145.453 20.6268V20.0111C145.453 18.7212 145.644 17.5729 146.025 16.5664C146.406 15.5501 146.924 14.6901 147.579 13.9865C148.233 13.2829 148.976 12.7503 149.807 12.3887C150.637 12.0272 151.497 11.8464 152.387 11.8464C153.52 11.8464 154.497 12.0418 155.318 12.4327C156.149 12.8236 156.828 13.3709 157.356 14.0745C157.883 14.7683 158.274 15.5892 158.528 16.5371C158.783 17.4752 158.91 18.5013 158.91 19.6154V20.832H147.066V18.6186H156.198V18.4134C156.159 17.7098 156.012 17.0257 155.758 16.3612C155.514 15.6967 155.123 15.1494 154.585 14.7194C154.048 14.2895 153.315 14.0745 152.387 14.0745C151.771 14.0745 151.204 14.2064 150.686 14.4702C150.168 14.7243 149.724 15.1054 149.352 15.6136C148.981 16.1218 148.693 16.7423 148.487 17.4752C148.282 18.2081 148.18 19.0535 148.18 20.0111V20.6268C148.18 21.3793 148.282 22.0878 148.487 22.7523C148.702 23.407 149.01 23.9836 149.411 24.482C149.821 24.9804 150.315 25.3712 150.891 25.6546C151.478 25.938 152.142 26.0797 152.885 26.0797C153.843 26.0797 154.654 25.8843 155.318 25.4934C155.983 25.1025 156.564 24.5797 157.063 23.9249L158.704 25.2296C158.362 25.7475 157.927 26.241 157.4 26.7101C156.872 27.1791 156.222 27.5602 155.45 27.8534C154.688 28.1466 153.784 28.2932 152.738 28.2932Z" fill="#1466FF"/>
<path fill-rule="evenodd" clip-rule="evenodd" d="M22.6634 0.242039C22.9861 -0.0806796 23.5094 -0.0806796 23.8321 0.242039L23.2477 0.826372C23.8321 0.242039 23.8323 0.242306 23.8326 0.242585L23.8332 0.243195L23.8346 0.24461L23.8382 0.248213L23.8483 0.258512C23.8563 0.26675 23.8668 0.277733 23.8798 0.291444C23.9056 0.318864 23.9411 0.357218 23.9846 0.406378C24.0717 0.504665 24.1916 0.64635 24.3332 0.830399C24.6161 1.19823 24.9871 1.73707 25.3563 2.43856C26.0954 3.84288 26.8287 5.90238 26.8287 8.53918C26.8287 11.176 26.0954 13.2355 25.3563 14.6398C24.9871 15.3413 24.6161 15.8801 24.3332 16.248C24.1916 16.432 24.0717 16.5737 23.9846 16.672C23.9411 16.7211 23.9056 16.7595 23.8798 16.7869C23.8716 16.7955 23.8644 16.8031 23.8582 16.8096C23.8546 16.8134 23.8513 16.8168 23.8483 16.8198L23.8382 16.8301L23.8346 16.8337L23.8332 16.8352L23.8326 16.8358C23.8323 16.8361 23.8321 16.8363 23.2477 16.252L23.8321 16.8363C23.5094 17.159 22.9861 17.159 22.6634 16.8363C22.3413 16.5142 22.3407 15.9922 22.6617 15.6693L22.6613 15.6698C22.6612 15.6699 22.6618 15.6693 22.663 15.668L22.6776 15.6528C22.6921 15.6374 22.7158 15.6117 22.7476 15.5759C22.8112 15.5042 22.9065 15.3919 23.0231 15.2403C23.2567 14.9367 23.5743 14.477 23.8938 13.87C24.5319 12.6575 25.176 10.8606 25.176 8.53918C25.176 6.21774 24.5319 4.42084 23.8938 3.20832C23.5743 2.60138 23.2567 2.14169 23.0231 1.83809C22.9065 1.68643 22.8112 1.57418 22.7476 1.50246C22.7158 1.46661 22.6921 1.44094 22.6776 1.42559L22.663 1.41034L22.6629 1.41022L22.6625 1.4098L22.6619 1.40914L22.6615 1.40878C22.3407 1.08591 22.3413 0.564116 22.6634 0.242039ZM22.6617 15.6693C22.662 15.6691 22.6623 15.6688 22.6625 15.6686L22.6619 15.6692L22.6617 15.6693ZM11.9903 13.9736C12.0906 13.482 12.2225 12.9715 12.399 12.4456L18.082 10.4953L12.888 10.0378L18.1285 7.00507L11.9248 7.93845C10.7965 6.08555 8.75747 4.84822 6.42943 4.84822C3.36327 4.84822 0.798404 6.99453 0.155303 9.8667L0.147402 9.84143C0.149524 9.47165 0.106422 9.33098 0.0843406 9.35309C0.0622594 9.3752 0.0611989 9.56009 0.147402 9.84143C0.147283 9.86227 0.14702 9.88384 0.146601 9.90615C0.0505799 10.3481 0 10.807 0 11.2776C0 11.3796 0.00481999 11.4832 0.0142672 11.5883C0.0985262 17.9347 2.6583 33.6885 14.3792 34.1935L14.0336 37.0033L8.65475 36.983L3.69374 37.2482L0.0893519 36.5614L0 38.3761L3.19388 38.5333L7.76694 38.7584L18.147 39.2695L27.6074 38.9642C31.568 41.838 34.708 45.3337 36.5677 47.404L36.5678 47.4041C37.5475 48.4948 38.1719 49.1899 38.3736 49.1899C38.3736 47.4452 37.0753 43.875 34.9328 39.6418L36.2394 39.7964L36.3719 37.1033L33.4135 36.7867C28.1662 27.371 19.6082 16.1379 11.9903 13.9736ZM15.4024 37.0085L17.3227 37.0157L17.6402 34.4335C17.2912 34.3748 16.9398 34.3268 16.5861 34.2903L15.4024 37.0085ZM19.4661 34.8412L18.5282 36.995L23.6998 36.5312C22.3475 35.831 20.9319 35.2482 19.4661 34.8412ZM21.1437 4.51828C20.836 4.2106 20.3371 4.2106 20.0294 4.51828L20.0258 5.62886L20.0258 5.62887L20.0286 5.63173C20.033 5.63642 20.0419 5.646 20.0547 5.66041C20.0802 5.68924 20.121 5.7372 20.1722 5.80372C20.2747 5.937 20.4174 6.14303 20.5618 6.41737C20.8499 6.96476 21.1436 7.78099 21.1436 8.84104C21.1436 9.9011 20.8499 10.7173 20.5618 11.2647C20.4174 11.5391 20.2747 11.7451 20.1722 11.8784C20.121 11.9449 20.0802 11.9928 20.0547 12.0217C20.0419 12.0361 20.033 12.0457 20.0286 12.0504L20.0265 12.0526L20.0259 12.0532C19.7218 12.3612 19.723 12.8573 20.0294 13.1638C20.3371 13.4715 20.836 13.4715 21.1437 13.1638L20.5866 12.6067C21.1437 13.1638 21.1439 13.1636 21.1442 13.1633L21.1447 13.1628L21.1459 13.1616L21.1486 13.1589L21.1554 13.1518L21.1747 13.1317C21.19 13.1155 21.21 13.0938 21.234 13.0667C21.282 13.0125 21.3463 12.9365 21.4212 12.8391C21.5708 12.6446 21.7644 12.3631 21.9562 11.9986C22.3405 11.2684 22.7193 10.2018 22.7193 8.84104C22.7193 7.48032 22.3405 6.41372 21.9562 5.68347C21.7644 5.31899 21.5708 5.03751 21.4212 4.84298C21.3463 4.74558 21.282 4.66956 21.234 4.6154C21.21 4.5883 21.19 4.56662 21.1747 4.55043L21.1554 4.53024L21.1486 4.52323L21.1459 4.52049L21.1447 4.51932L21.1442 4.51878C21.1439 4.51853 21.1437 4.51828 20.5866 5.07539L21.1437 4.51828ZM20.029 12.0501L20.0285 12.0505L20.0286 12.0504L20.029 12.0501ZM20.029 12.0501L20.0294 12.0496L20.5657 12.5858C20.0294 12.0496 20.0292 12.0498 20.029 12.0501Z" fill="#1466FF"/>
</svg>
