<svg width="786" height="221" viewBox="0 0 786 221" fill="none" xmlns="http://www.w3.org/2000/svg">
<path d="M18.336 208V174.4H22.688V183.552L22.24 181.952C23.1787 179.392 24.7573 177.451 26.976 176.128C29.1947 174.763 31.9467 174.08 35.232 174.08V178.496C35.0613 178.496 34.8907 178.496 34.72 178.496C34.5493 178.453 34.3787 178.432 34.208 178.432C30.6667 178.432 27.8933 179.52 25.888 181.696C23.8827 183.829 22.88 186.88 22.88 190.848V208H18.336ZM57.483 208.32C53.9843 208.32 50.9123 207.595 48.267 206.144C45.6217 204.651 43.5523 202.624 42.059 200.064C40.5657 197.461 39.819 194.496 39.819 191.168C39.819 187.84 40.523 184.896 41.931 182.336C43.3817 179.776 45.3443 177.771 47.819 176.32C50.3363 174.827 53.1523 174.08 56.267 174.08C59.4243 174.08 62.219 174.805 64.651 176.256C67.1257 177.664 69.067 179.669 70.475 182.272C71.883 184.832 72.587 187.797 72.587 191.168C72.587 191.381 72.5657 191.616 72.523 191.872C72.523 192.085 72.523 192.32 72.523 192.576H43.275V189.184H70.091L68.299 190.528C68.299 188.096 67.7657 185.941 66.699 184.064C65.675 182.144 64.267 180.651 62.475 179.584C60.683 178.517 58.6137 177.984 56.267 177.984C53.963 177.984 51.8937 178.517 50.059 179.584C48.2243 180.651 46.795 182.144 45.771 184.064C44.747 185.984 44.235 188.181 44.235 190.656V191.36C44.235 193.92 44.7897 196.181 45.899 198.144C47.051 200.064 48.6297 201.579 50.635 202.688C52.683 203.755 55.0083 204.288 57.611 204.288C59.659 204.288 61.5577 203.925 63.307 203.2C65.099 202.475 66.635 201.365 67.915 199.872L70.475 202.816C68.9817 204.608 67.1043 205.973 64.843 206.912C62.6243 207.851 60.171 208.32 57.483 208.32ZM95.788 208.32C92.46 208.32 89.4733 207.595 86.828 206.144C84.2253 204.651 82.1773 202.624 80.684 200.064C79.1907 197.461 78.444 194.496 78.444 191.168C78.444 187.797 79.1907 184.832 80.684 182.272C82.1773 179.712 84.2253 177.707 86.828 176.256C89.4733 174.805 92.46 174.08 95.788 174.08C98.6467 174.08 101.228 174.635 103.532 175.744C105.836 176.853 107.649 178.517 108.972 180.736L105.58 183.04C104.428 181.333 102.999 180.075 101.292 179.264C99.5853 178.453 97.7293 178.048 95.724 178.048C93.3347 178.048 91.18 178.603 89.26 179.712C87.34 180.779 85.8253 182.293 84.716 184.256C83.6067 186.219 83.052 188.523 83.052 191.168C83.052 193.813 83.6067 196.117 84.716 198.08C85.8253 200.043 87.34 201.579 89.26 202.688C91.18 203.755 93.3347 204.288 95.724 204.288C97.7293 204.288 99.5853 203.883 101.292 203.072C102.999 202.261 104.428 201.024 105.58 199.36L108.972 201.664C107.649 203.84 105.836 205.504 103.532 206.656C101.228 207.765 98.6467 208.32 95.788 208.32ZM131.032 208.32C127.789 208.32 124.867 207.595 122.264 206.144C119.704 204.651 117.677 202.624 116.184 200.064C114.691 197.461 113.944 194.496 113.944 191.168C113.944 187.797 114.691 184.832 116.184 182.272C117.677 179.712 119.704 177.707 122.264 176.256C124.824 174.805 127.747 174.08 131.032 174.08C134.36 174.08 137.304 174.805 139.864 176.256C142.467 177.707 144.493 179.712 145.944 182.272C147.437 184.832 148.184 187.797 148.184 191.168C148.184 194.496 147.437 197.461 145.944 200.064C144.493 202.624 142.467 204.651 139.864 206.144C137.261 207.595 134.317 208.32 131.032 208.32ZM131.032 204.288C133.464 204.288 135.619 203.755 137.496 202.688C139.373 201.579 140.845 200.043 141.912 198.08C143.021 196.075 143.576 193.771 143.576 191.168C143.576 188.523 143.021 186.219 141.912 184.256C140.845 182.293 139.373 180.779 137.496 179.712C135.619 178.603 133.485 178.048 131.096 178.048C128.707 178.048 126.573 178.603 124.696 179.712C122.819 180.779 121.325 182.293 120.216 184.256C119.107 186.219 118.552 188.523 118.552 191.168C118.552 193.771 119.107 196.075 120.216 198.08C121.325 200.043 122.819 201.579 124.696 202.688C126.573 203.755 128.685 204.288 131.032 204.288ZM171.797 220.736C168.725 220.736 165.781 220.288 162.965 219.392C160.149 218.496 157.866 217.216 156.117 215.552L158.421 212.096C160 213.504 161.941 214.613 164.245 215.424C166.592 216.277 169.066 216.704 171.669 216.704C175.936 216.704 179.072 215.701 181.077 213.696C183.082 211.733 184.085 208.661 184.085 204.48V196.096L184.725 190.336L184.277 184.576V174.4H188.629V203.904C188.629 209.707 187.2 213.952 184.341 216.64C181.525 219.371 177.344 220.736 171.797 220.736ZM170.965 206.72C167.765 206.72 164.885 206.037 162.325 204.672C159.765 203.264 157.738 201.323 156.245 198.848C154.794 196.373 154.069 193.536 154.069 190.336C154.069 187.136 154.794 184.32 156.245 181.888C157.738 179.413 159.765 177.493 162.325 176.128C164.885 174.763 167.765 174.08 170.965 174.08C173.952 174.08 176.64 174.699 179.029 175.936C181.418 177.173 183.317 179.008 184.725 181.44C186.133 183.872 186.837 186.837 186.837 190.336C186.837 193.835 186.133 196.8 184.725 199.232C183.317 201.664 181.418 203.52 179.029 204.8C176.64 206.08 173.952 206.72 170.965 206.72ZM171.413 202.688C173.888 202.688 176.085 202.176 178.005 201.152C179.925 200.085 181.44 198.635 182.549 196.8C183.658 194.923 184.213 192.768 184.213 190.336C184.213 187.904 183.658 185.771 182.549 183.936C181.44 182.101 179.925 180.672 178.005 179.648C176.085 178.581 173.888 178.048 171.413 178.048C168.981 178.048 166.784 178.581 164.821 179.648C162.901 180.672 161.386 182.101 160.277 183.936C159.21 185.771 158.677 187.904 158.677 190.336C158.677 192.768 159.21 194.923 160.277 196.8C161.386 198.635 162.901 200.085 164.821 201.152C166.784 202.176 168.981 202.688 171.413 202.688ZM218.426 174.08C221.156 174.08 223.546 174.613 225.594 175.68C227.684 176.704 229.306 178.283 230.458 180.416C231.652 182.549 232.25 185.237 232.25 188.48V208H227.706V188.928C227.706 185.387 226.81 182.72 225.018 180.928C223.268 179.093 220.794 178.176 217.594 178.176C215.204 178.176 213.114 178.667 211.322 179.648C209.572 180.587 208.207 181.973 207.226 183.808C206.287 185.6 205.818 187.776 205.818 190.336V208H201.274V174.4H205.626V183.616L204.922 181.888C205.988 179.456 207.695 177.557 210.042 176.192C212.388 174.784 215.183 174.08 218.426 174.08ZM244.524 208V174.4H249.068V208H244.524ZM246.828 166.976C245.889 166.976 245.1 166.656 244.46 166.016C243.82 165.376 243.5 164.608 243.5 163.712C243.5 162.816 243.82 162.069 244.46 161.472C245.1 160.832 245.889 160.512 246.828 160.512C247.766 160.512 248.556 160.811 249.196 161.408C249.836 162.005 250.156 162.752 250.156 163.648C250.156 164.587 249.836 165.376 249.196 166.016C248.598 166.656 247.809 166.976 246.828 166.976ZM272.335 208.32C269.178 208.32 266.746 207.467 265.039 205.76C263.332 204.053 262.479 201.643 262.479 198.528V166.976H267.023V198.272C267.023 200.235 267.514 201.749 268.495 202.816C269.519 203.883 270.97 204.416 272.847 204.416C274.852 204.416 276.516 203.84 277.839 202.688L279.439 205.952C278.543 206.763 277.455 207.36 276.175 207.744C274.938 208.128 273.658 208.32 272.335 208.32ZM256.463 178.176V174.4H277.263V178.176H256.463ZM287.711 208V174.4H292.255V208H287.711ZM290.015 166.976C289.076 166.976 288.287 166.656 287.647 166.016C287.007 165.376 286.687 164.608 286.687 163.712C286.687 162.816 287.007 162.069 287.647 161.472C288.287 160.832 289.076 160.512 290.015 160.512C290.954 160.512 291.743 160.811 292.383 161.408C293.023 162.005 293.343 162.752 293.343 163.648C293.343 164.587 293.023 165.376 292.383 166.016C291.786 166.656 290.996 166.976 290.015 166.976ZM318.595 208.32C315.352 208.32 312.429 207.595 309.827 206.144C307.267 204.651 305.24 202.624 303.747 200.064C302.253 197.461 301.507 194.496 301.507 191.168C301.507 187.797 302.253 184.832 303.747 182.272C305.24 179.712 307.267 177.707 309.827 176.256C312.387 174.805 315.309 174.08 318.595 174.08C321.923 174.08 324.867 174.805 327.427 176.256C330.029 177.707 332.056 179.712 333.507 182.272C335 184.832 335.747 187.797 335.747 191.168C335.747 194.496 335 197.461 333.507 200.064C332.056 202.624 330.029 204.651 327.427 206.144C324.824 207.595 321.88 208.32 318.595 208.32ZM318.595 204.288C321.027 204.288 323.181 203.755 325.059 202.688C326.936 201.579 328.408 200.043 329.475 198.08C330.584 196.075 331.139 193.771 331.139 191.168C331.139 188.523 330.584 186.219 329.475 184.256C328.408 182.293 326.936 180.779 325.059 179.712C323.181 178.603 321.048 178.048 318.659 178.048C316.269 178.048 314.136 178.603 312.259 179.712C310.381 180.779 308.888 182.293 307.779 184.256C306.669 186.219 306.115 188.523 306.115 191.168C306.115 193.771 306.669 196.075 307.779 198.08C308.888 200.043 310.381 201.579 312.259 202.688C314.136 203.755 316.248 204.288 318.595 204.288ZM362.176 174.08C364.906 174.08 367.296 174.613 369.344 175.68C371.434 176.704 373.056 178.283 374.208 180.416C375.402 182.549 376 185.237 376 188.48V208H371.456V188.928C371.456 185.387 370.56 182.72 368.768 180.928C367.018 179.093 364.544 178.176 361.344 178.176C358.954 178.176 356.864 178.667 355.072 179.648C353.322 180.587 351.957 181.973 350.976 183.808C350.037 185.6 349.568 187.776 349.568 190.336V208H345.024V174.4H349.376V183.616L348.672 181.888C349.738 179.456 351.445 177.557 353.792 176.192C356.138 174.784 358.933 174.08 362.176 174.08ZM414.048 208.32C411.274 208.32 408.65 207.936 406.176 207.168C403.701 206.357 401.76 205.355 400.352 204.16L402.4 200.576C403.765 201.6 405.514 202.496 407.648 203.264C409.781 203.989 412.021 204.352 414.368 204.352C417.568 204.352 419.872 203.861 421.28 202.88C422.688 201.856 423.392 200.512 423.392 198.848C423.392 197.611 422.986 196.651 422.176 195.968C421.408 195.243 420.384 194.709 419.104 194.368C417.824 193.984 416.394 193.664 414.816 193.408C413.237 193.152 411.658 192.853 410.08 192.512C408.544 192.171 407.136 191.68 405.856 191.04C404.576 190.357 403.53 189.44 402.72 188.288C401.952 187.136 401.568 185.6 401.568 183.68C401.568 181.845 402.08 180.203 403.104 178.752C404.128 177.301 405.621 176.171 407.584 175.36C409.589 174.507 412.021 174.08 414.88 174.08C417.056 174.08 419.232 174.379 421.408 174.976C423.584 175.531 425.376 176.277 426.784 177.216L424.8 180.864C423.306 179.84 421.706 179.115 420 178.688C418.293 178.219 416.586 177.984 414.88 177.984C411.85 177.984 409.61 178.517 408.16 179.584C406.752 180.608 406.048 181.931 406.048 183.552C406.048 184.832 406.432 185.835 407.2 186.56C408.01 187.285 409.056 187.861 410.336 188.288C411.658 188.672 413.088 188.992 414.624 189.248C416.202 189.504 417.76 189.824 419.296 190.208C420.874 190.549 422.304 191.04 423.584 191.68C424.906 192.277 425.952 193.152 426.72 194.304C427.53 195.413 427.936 196.885 427.936 198.72C427.936 200.683 427.381 202.389 426.272 203.84C425.205 205.248 423.626 206.357 421.536 207.168C419.488 207.936 416.992 208.32 414.048 208.32ZM450.546 208.32C447.047 208.32 443.975 207.595 441.33 206.144C438.684 204.651 436.615 202.624 435.122 200.064C433.628 197.461 432.882 194.496 432.882 191.168C432.882 187.84 433.586 184.896 434.994 182.336C436.444 179.776 438.407 177.771 440.882 176.32C443.399 174.827 446.215 174.08 449.33 174.08C452.487 174.08 455.282 174.805 457.714 176.256C460.188 177.664 462.13 179.669 463.538 182.272C464.946 184.832 465.65 187.797 465.65 191.168C465.65 191.381 465.628 191.616 465.586 191.872C465.586 192.085 465.586 192.32 465.586 192.576H436.338V189.184H463.154L461.362 190.528C461.362 188.096 460.828 185.941 459.762 184.064C458.738 182.144 457.33 180.651 455.538 179.584C453.746 178.517 451.676 177.984 449.33 177.984C447.026 177.984 444.956 178.517 443.122 179.584C441.287 180.651 439.858 182.144 438.834 184.064C437.81 185.984 437.298 188.181 437.298 190.656V191.36C437.298 193.92 437.852 196.181 438.962 198.144C440.114 200.064 441.692 201.579 443.698 202.688C445.746 203.755 448.071 204.288 450.674 204.288C452.722 204.288 454.62 203.925 456.37 203.2C458.162 202.475 459.698 201.365 460.978 199.872L463.538 202.816C462.044 204.608 460.167 205.973 457.906 206.912C455.687 207.851 453.234 208.32 450.546 208.32ZM474.899 208V174.4H479.251V183.552L478.803 181.952C479.741 179.392 481.32 177.451 483.539 176.128C485.757 174.763 488.509 174.08 491.795 174.08V178.496C491.624 178.496 491.453 178.496 491.283 178.496C491.112 178.453 490.941 178.432 490.771 178.432C487.229 178.432 484.456 179.52 482.451 181.696C480.445 183.829 479.443 186.88 479.443 190.848V208H474.899ZM510.164 208L495.252 174.4H499.988L513.684 205.568H511.444L525.332 174.4H529.812L514.836 208H510.164ZM536.211 208V174.4H540.755V208H536.211ZM538.515 166.976C537.576 166.976 536.787 166.656 536.147 166.016C535.507 165.376 535.187 164.608 535.187 163.712C535.187 162.816 535.507 162.069 536.147 161.472C536.787 160.832 537.576 160.512 538.515 160.512C539.454 160.512 540.243 160.811 540.883 161.408C541.523 162.005 541.843 162.752 541.843 163.648C541.843 164.587 541.523 165.376 540.883 166.016C540.286 166.656 539.496 166.976 538.515 166.976ZM567.351 208.32C564.023 208.32 561.036 207.595 558.391 206.144C555.788 204.651 553.74 202.624 552.247 200.064C550.753 197.461 550.007 194.496 550.007 191.168C550.007 187.797 550.753 184.832 552.247 182.272C553.74 179.712 555.788 177.707 558.391 176.256C561.036 174.805 564.023 174.08 567.351 174.08C570.209 174.08 572.791 174.635 575.095 175.744C577.399 176.853 579.212 178.517 580.535 180.736L577.143 183.04C575.991 181.333 574.561 180.075 572.855 179.264C571.148 178.453 569.292 178.048 567.287 178.048C564.897 178.048 562.743 178.603 560.823 179.712C558.903 180.779 557.388 182.293 556.279 184.256C555.169 186.219 554.615 188.523 554.615 191.168C554.615 193.813 555.169 196.117 556.279 198.08C557.388 200.043 558.903 201.579 560.823 202.688C562.743 203.755 564.897 204.288 567.287 204.288C569.292 204.288 571.148 203.883 572.855 203.072C574.561 202.261 575.991 201.024 577.143 199.36L580.535 201.664C579.212 203.84 577.399 205.504 575.095 206.656C572.791 207.765 570.209 208.32 567.351 208.32ZM603.171 208.32C599.672 208.32 596.6 207.595 593.955 206.144C591.309 204.651 589.24 202.624 587.747 200.064C586.253 197.461 585.507 194.496 585.507 191.168C585.507 187.84 586.211 184.896 587.619 182.336C589.069 179.776 591.032 177.771 593.507 176.32C596.024 174.827 598.84 174.08 601.955 174.08C605.112 174.08 607.907 174.805 610.339 176.256C612.813 177.664 614.755 179.669 616.163 182.272C617.571 184.832 618.275 187.797 618.275 191.168C618.275 191.381 618.253 191.616 618.211 191.872C618.211 192.085 618.211 192.32 618.211 192.576H588.963V189.184H615.779L613.987 190.528C613.987 188.096 613.453 185.941 612.387 184.064C611.363 182.144 609.955 180.651 608.163 179.584C606.371 178.517 604.301 177.984 601.955 177.984C599.651 177.984 597.581 178.517 595.747 179.584C593.912 180.651 592.483 182.144 591.459 184.064C590.435 185.984 589.923 188.181 589.923 190.656V191.36C589.923 193.92 590.477 196.181 591.587 198.144C592.739 200.064 594.317 201.579 596.323 202.688C598.371 203.755 600.696 204.288 603.299 204.288C605.347 204.288 607.245 203.925 608.995 203.2C610.787 202.475 612.323 201.365 613.603 199.872L616.163 202.816C614.669 204.608 612.792 205.973 610.531 206.912C608.312 207.851 605.859 208.32 603.171 208.32Z" fill="#1E5ED6"/>
<path d="M88.5 90.4C94.3 92.3 98.9 95.5 102.3 100C105.7 104.4 107.4 109.9 107.4 116.5C107.4 125.6 103.9 132.65 96.9 137.65C89.9 142.55 79.7 145 66.3 145H14.1V40H63.3C75.7 40 85.25 42.45 91.95 47.35C98.65 52.15 102 58.8 102 67.3C102 72.5 100.8 77.1 98.4 81.1C96 85.1 92.7 88.2 88.5 90.4ZM33.6 55.3V84.25H61.2C68 84.25 73.2 83.05 76.8 80.65C80.5 78.15 82.35 74.55 82.35 69.85C82.35 65.05 80.5 61.45 76.8 59.05C73.2 56.55 68 55.3 61.2 55.3H33.6ZM65.1 129.7C80.2 129.7 87.75 124.65 87.75 114.55C87.75 104.45 80.2 99.4 65.1 99.4H33.6V129.7H65.1ZM126.411 64.9H145.161V145H126.411V64.9ZM135.861 51.7C132.461 51.7 129.611 50.65 127.311 48.55C125.011 46.35 123.861 43.65 123.861 40.45C123.861 37.25 125.011 34.6 127.311 32.5C129.611 30.3 132.461 29.2 135.861 29.2C139.261 29.2 142.111 30.25 144.411 32.35C146.711 34.35 147.861 36.9 147.861 40C147.861 43.3 146.711 46.1 144.411 48.4C142.211 50.6 139.361 51.7 135.861 51.7ZM187.621 76.6C193.021 68.2 202.521 64 216.121 64V81.85C214.521 81.55 213.071 81.4 211.771 81.4C204.471 81.4 198.771 83.55 194.671 87.85C190.571 92.05 188.521 98.15 188.521 106.15V145H169.771V64.9H187.621V76.6ZM309.744 33.7V145H291.744V134.65C288.644 138.45 284.794 141.3 280.194 143.2C275.694 145.1 270.694 146.05 265.194 146.05C257.494 146.05 250.544 144.35 244.344 140.95C238.244 137.55 233.444 132.75 229.944 126.55C226.444 120.25 224.694 113.05 224.694 104.95C224.694 96.85 226.444 89.7 229.944 83.5C233.444 77.3 238.244 72.5 244.344 69.1C250.544 65.7 257.494 64 265.194 64C270.494 64 275.344 64.9 279.744 66.7C284.144 68.5 287.894 71.2 290.994 74.8V33.7H309.744ZM267.444 130C271.944 130 275.994 129 279.594 127C283.194 124.9 286.044 121.95 288.144 118.15C290.244 114.35 291.294 109.95 291.294 104.95C291.294 99.95 290.244 95.55 288.144 91.75C286.044 87.95 283.194 85.05 279.594 83.05C275.994 80.95 271.944 79.9 267.444 79.9C262.944 79.9 258.894 80.95 255.294 83.05C251.694 85.05 248.844 87.95 246.744 91.75C244.644 95.55 243.594 99.95 243.594 104.95C243.594 109.95 244.644 114.35 246.744 118.15C248.844 121.95 251.694 124.9 255.294 127C258.894 129 262.944 130 267.444 130ZM473.528 40L427.778 145H408.578L362.678 40H383.828L418.778 121L454.028 40H473.528ZM512.802 146.05C504.702 146.05 497.402 144.3 490.902 140.8C484.402 137.3 479.302 132.45 475.602 126.25C472.002 119.95 470.202 112.85 470.202 104.95C470.202 97.05 472.002 90 475.602 83.8C479.302 77.6 484.402 72.75 490.902 69.25C497.402 65.75 504.702 64 512.802 64C521.002 64 528.352 65.75 534.852 69.25C541.352 72.75 546.402 77.6 550.002 83.8C553.702 90 555.552 97.05 555.552 104.95C555.552 112.85 553.702 119.95 550.002 126.25C546.402 132.45 541.352 137.3 534.852 140.8C528.352 144.3 521.002 146.05 512.802 146.05ZM512.802 130C519.702 130 525.402 127.7 529.902 123.1C534.402 118.5 536.652 112.45 536.652 104.95C536.652 97.45 534.402 91.4 529.902 86.8C525.402 82.2 519.702 79.9 512.802 79.9C505.902 79.9 500.202 82.2 495.702 86.8C491.302 91.4 489.102 97.45 489.102 104.95C489.102 112.45 491.302 118.5 495.702 123.1C500.202 127.7 505.902 130 512.802 130ZM573.482 64.9H592.232V145H573.482V64.9ZM582.932 51.7C579.532 51.7 576.682 50.65 574.382 48.55C572.082 46.35 570.932 43.65 570.932 40.45C570.932 37.25 572.082 34.6 574.382 32.5C576.682 30.3 579.532 29.2 582.932 29.2C586.332 29.2 589.182 30.25 591.482 32.35C593.782 34.35 594.932 36.9 594.932 40C594.932 43.3 593.782 46.1 591.482 48.4C589.282 50.6 586.432 51.7 582.932 51.7ZM653.591 146.05C645.291 146.05 637.841 144.3 631.241 140.8C624.641 137.3 619.491 132.45 615.791 126.25C612.091 119.95 610.241 112.85 610.241 104.95C610.241 97.05 612.091 90 615.791 83.8C619.491 77.6 624.591 72.75 631.091 69.25C637.691 65.75 645.191 64 653.591 64C661.491 64 668.391 65.6 674.291 68.8C680.291 72 684.791 76.6 687.791 82.6L673.391 91C671.091 87.3 668.191 84.55 664.691 82.75C661.291 80.85 657.541 79.9 653.441 79.9C646.441 79.9 640.641 82.2 636.041 86.8C631.441 91.3 629.141 97.35 629.141 104.95C629.141 112.55 631.391 118.65 635.891 123.25C640.491 127.75 646.341 130 653.441 130C657.541 130 661.291 129.1 664.691 127.3C668.191 125.4 671.091 122.6 673.391 118.9L687.791 127.3C684.691 133.3 680.141 137.95 674.141 141.25C668.241 144.45 661.391 146.05 653.591 146.05ZM740.927 130.15C749.627 130.15 756.877 127.25 762.677 121.45L772.577 133C769.077 137.3 764.577 140.55 759.077 142.75C753.577 144.95 747.377 146.05 740.477 146.05C731.677 146.05 723.927 144.3 717.227 140.8C710.527 137.3 705.327 132.45 701.627 126.25C698.027 119.95 696.227 112.85 696.227 104.95C696.227 97.15 697.977 90.15 701.477 83.95C705.077 77.65 709.977 72.75 716.177 69.25C722.477 65.75 729.577 64 737.477 64C744.977 64 751.777 65.65 757.877 68.95C764.077 72.15 768.977 76.8 772.577 82.9C776.177 88.9 777.977 95.95 777.977 104.05L716.627 116.05C718.527 120.65 721.577 124.15 725.777 126.55C729.977 128.95 735.027 130.15 740.927 130.15ZM737.477 79C730.577 79 724.977 81.25 720.677 85.75C716.477 90.25 714.377 96.3 714.377 103.9V104.05L759.677 95.35C758.377 90.45 755.727 86.5 751.727 83.5C747.827 80.5 743.077 79 737.477 79Z" fill="#1E5ED6"/>
</svg>
